<svg width="300" height="200" xmlns="http://www.w3.org/2000/svg" fill="none">

 <g>
  <title>Layer 1</title>
  <g transform="rotate(20 125 57.7811)" id="svg_9">
   <path id="svg_1" fill="#221714" d="m33.2523,81.2205c-0.8952,-0.5503 -1.937,-0.8257 -3.1206,-0.8128c-1.1852,0.0085 -2.2492,0.1842 -3.1829,0.5241c-0.5513,0.2006 -1.0917,0.4728 -1.6272,0.8138c-0.5356,0.3409 -1.0096,0.74 -1.425,1.2034c-0.4155,0.4634 -0.7052,0.9817 -0.8663,1.5489c-0.1595,0.5717 -0.1205,1.1768 0.1158,1.826c0.377,1.036 1.0519,1.6866 2.029,1.9503c0.9744,0.2697 2.1224,0.3806 3.4415,0.3385c1.319,-0.042 2.7314,-0.118 4.2283,-0.2248c1.4985,-0.1023 2.9647,-0.0166 4.4064,0.2643c1.4371,0.2826 2.7632,0.8825 3.9706,1.7925c1.2089,0.9144 2.1812,2.3682 2.911,4.3735c0.6943,1.9074 0.9438,3.6997 0.7487,5.3768c-0.1936,1.682 -0.7251,3.21 -1.593,4.588c-0.8724,1.38 -2.0249,2.585 -3.4561,3.619c-1.4372,1.032 -3.0426,1.878 -4.8166,2.524c-2.2276,0.811 -4.4225,1.227 -6.5731,1.239c-2.155,0.014 -4.3288,-0.438 -6.5318,-1.358l3.2276,-7.872c1.1507,0.754 2.4202,1.199 3.8084,1.333c1.3854,0.14 2.7101,-0.025 3.9683,-0.483c0.6136,-0.223 1.2102,-0.521 1.7882,-0.897c0.5779,-0.377 1.0633,-0.8 1.4605,-1.272c0.3973,-0.472 0.6615,-0.991 0.8032,-1.556c0.1417,-0.5655 0.1032,-1.1557 -0.1202,-1.7692c-0.377,-1.036 -1.0689,-1.7056 -2.0772,-2.0134c-1.0082,-0.3077 -2.1903,-0.4565 -3.5401,-0.4436c-1.3481,0.0174 -2.7957,0.0659 -4.3367,0.1484c-1.5438,0.0886 -3.0387,-0.0068 -4.4936,-0.2828c-1.455,-0.2761 -2.78797,-0.8534 -4.00177,-1.7258c-1.21542,-0.8769 -2.16944,-2.2668 -2.86369,-4.1742c-0.66997,-1.8407 -0.89444,-3.5918 -0.67461,-5.2428c0.22427,-1.6527 0.76511,-3.1687 1.63747,-4.5487c0.87236,-1.3799 2.01277,-2.5906 3.42571,-3.6336c1.41289,-1.0429 2.95889,-1.8725 4.63959,-2.4842c1.9386,-0.7056 3.9107,-1.1112 5.9194,-1.223c2.0103,-0.1073 3.977,0.2192 5.9003,0.9794l-3.1295,7.574z"/>
   <path id="svg_2" fill="#221714" d="m41.3486,68.7773l7.5586,-2.7511l5.1866,14.2502l8.1432,-19.1018l9.8839,-3.5974l-9.4651,21.5013l23.2606,12.3343l-10.5597,3.8435l-19.8873,-11.2006l5.9278,16.2863l-7.5586,2.751l-12.49,-34.3157z"/>
   <path id="svg_3" fill="#221714" d="m91.6415,72.7593l-20.0565,-14.9859l9.4037,-3.4226l11.9448,10.1992l3.0301,-15.6497l8.9635,-3.2624l-5.7314,24.372l5.3274,14.6369l-7.5586,2.7511l-5.3274,-14.6369l0.0044,-0.0017z"/>
   <path id="svg_4" fill="#221714" d="m107.7417,44.6133l7.5629,-2.7527l9.949,27.3353l14.006,-5.0976l2.541,6.9806l-21.569,7.8503l-12.4899,-34.3159z"/>
   <path id="svg_5" fill="#221714" d="m133.7696,35.139l23.312,-8.4847l2.54,6.9806l-15.753,5.7336l2.329,6.3981l14.877,-5.4148l2.541,6.9805l-14.877,5.4148l2.54,6.9806l16.625,-6.0508l2.541,6.9806l-24.188,8.8035l-12.491,-34.3204l0.004,-0.0016z"/>
   <path id="svg_6" fill="#221714" d="m164.0136,24.1312l10.275,-3.7399l23.267,18.5355l0.098,-0.0356l-8.679,-23.8451l7.559,-2.7511l12.49,34.3159l-9.889,3.5991l-23.87,-18.9755l-0.098,0.0356l8.891,24.4275l-7.558,2.7511l-12.49,-34.3159l0.004,-0.0016z"/>
   <path id="svg_7" fill="#221714" d="m223.5286,11.9654c-0.895,-0.5504 -1.937,-0.8257 -3.12,-0.8129c-1.186,0.0085 -2.25,0.1842 -3.188,0.5257c-0.547,0.199 -1.091,0.4729 -1.627,0.8138c-0.536,0.3409 -1.01,0.7401 -1.425,1.2035c-0.415,0.4634 -0.705,0.9817 -0.866,1.5489c-0.16,0.5716 -0.121,1.1768 0.115,1.8259c0.378,1.036 1.052,1.6866 2.025,1.9519c0.974,0.2698 2.123,0.3806 3.446,0.337c1.319,-0.0421 2.727,-0.1165 4.228,-0.2248c1.499,-0.1023 2.97,-0.0183 4.407,0.2642c1.437,0.2826 2.763,0.8825 3.975,1.7909c1.209,0.9145 2.181,2.3682 2.911,4.3735c0.694,1.9074 0.944,3.6997 0.748,5.377c-0.193,1.6817 -0.725,3.2095 -1.597,4.5895c-0.868,1.3783 -2.025,2.5849 -3.456,3.6194c-1.437,1.0316 -3.043,1.8778 -4.817,2.5235c-2.227,0.8108 -4.422,1.227 -6.577,1.241c-2.155,0.0139 -4.329,-0.4386 -6.532,-1.3588l3.228,-7.8716c1.15,0.7544 2.42,1.1987 3.804,1.3345c1.385,0.1403 2.71,-0.0247 3.968,-0.4826c0.613,-0.2234 1.21,-0.5211 1.788,-0.8976c0.578,-0.3765 1.063,-0.7999 1.456,-1.2701c0.397,-0.4719 0.662,-0.991 0.808,-1.5578c0.141,-0.5652 0.103,-1.1554 -0.12,-1.769c-0.378,-1.0359 -1.069,-1.7056 -2.078,-2.0133c-1.008,-0.3078 -2.19,-0.4566 -3.54,-0.4436c-1.348,0.0173 -2.795,0.0659 -4.336,0.1484c-1.54,0.0869 -3.039,-0.0068 -4.494,-0.2829c-1.455,-0.276 -2.792,-0.8517 -4.002,-1.7257c-1.215,-0.8769 -2.169,-2.2668 -2.864,-4.1742c-0.67,-1.8408 -0.894,-3.5919 -0.674,-5.2429c0.22,-1.651 0.765,-3.1687 1.637,-4.5486c0.873,-1.37997 2.013,-2.59063 3.426,-3.63359c1.413,-1.04297 2.959,-1.87252 4.64,-2.48424c1.938,-0.70557 3.91,-1.1112 5.919,-1.22296c2.01,-0.10732 3.977,0.21913 5.9,0.97936l-3.116,7.56923z"/>
  </g>
 </g>
</svg>