<svg width="48" height="49" viewBox="0 0 48 49" fill="none" xmlns="http://www.w3.org/2000/svg">
<path fill-rule="evenodd" clip-rule="evenodd" d="M8.0423 0.5C8.41919 0.5 8.7803 0.567499 9.11421 0.691063C9.40176 0.797474 9.56355 1.08938 9.56355 1.39588V7.2051C9.56355 7.61656 9.89723 7.95011 10.3088 7.95011C10.7205 7.95011 11.0542 7.61656 11.0542 7.2051V2.97148C11.0542 2.7345 11.1494 2.50322 11.3413 2.36402C11.8501 1.99486 12.4761 1.77716 13.153 1.77716C13.7459 1.77716 14.2998 1.94424 14.7702 2.23387C14.9884 2.36825 15.1002 2.61691 15.1002 2.87311V6.77938C15.1002 7.19084 15.4339 7.52439 15.8455 7.52439C16.2571 7.52439 16.5908 7.19084 16.5908 6.77938V3.58407C16.5908 3.29498 16.7342 3.01763 16.9979 2.899C17.3842 2.72527 17.8126 2.6286 18.2636 2.6286C18.9758 2.6286 19.6317 2.86965 20.1541 3.27457C20.3351 3.41485 20.4238 3.63872 20.4238 3.86763V6.77938C20.4238 7.19084 20.7575 7.52439 21.1691 7.52439C21.5807 7.52439 21.9144 7.19084 21.9144 6.77938V4.78082C21.9144 4.46738 22.0838 4.16982 22.3807 4.06902C22.6925 3.96317 23.0267 3.90576 23.3743 3.90576C25.0795 3.90577 26.4619 5.28763 26.4619 6.99224V14.8681L26.4619 14.8745V15.6131C26.4619 21.2559 21.8857 25.8304 16.2406 25.8304H14.1112C10.2161 25.8304 6.8095 23.7396 4.95332 20.6195L0.716699 15.3986C-0.825547 13.4981 0.25653 10.641 2.67124 10.2379L2.96677 10.1886C3.2264 10.1452 3.46281 10.3453 3.46281 10.6085V12.3137C3.46281 12.7252 3.79649 13.0588 4.20811 13.0588C4.61973 13.0588 4.95341 12.7252 4.95341 12.3137V9.73937L4.95462 9.73745L4.95462 3.58647C4.95462 1.88186 6.33702 0.5 8.0423 0.5ZM30.238 9.75942V12.1009H31.8429C32.4897 12.1009 33.0141 11.5767 33.0141 10.9302C33.0141 10.2836 32.4897 9.75942 31.8429 9.75942H30.238ZM11.5866 28.7812C10.7773 28.7214 9.99314 28.5712 9.24423 28.3406V32.3492C9.24423 32.9958 9.76859 33.52 10.4154 33.52C11.0623 33.52 11.5866 32.9958 11.5866 32.3492V28.7812ZM37.1132 10.9302C37.1132 10.2836 37.6376 9.75942 38.2844 9.75942H41.5052C42.3837 9.75942 43.2242 9.93441 43.9916 10.2525C44.5891 10.5002 44.8727 11.1851 44.6249 11.7824C44.3771 12.3797 43.6919 12.6631 43.0944 12.4154C42.6064 12.2131 42.0704 12.1009 41.5052 12.1009H38.2844C37.6376 12.1009 37.1132 11.5767 37.1132 10.9302ZM45.9762 13.1332C46.5737 12.8855 47.2589 13.1689 47.5067 13.7662C47.8249 14.5333 48 15.3735 48 16.2517V19.4712C48 20.1178 47.4756 20.6419 46.8288 20.6419C46.182 20.6419 45.6576 20.1178 45.6576 19.4712V16.2517C45.6576 15.6867 45.5453 15.1509 45.343 14.6631C45.0952 14.0658 45.3787 13.3809 45.9762 13.1332ZM46.8288 24.7395C47.4756 24.7395 48 25.2636 48 25.9102V32.3492C48 32.9958 47.4756 33.52 46.8288 33.52C46.182 33.52 45.6576 32.9958 45.6576 32.3492V25.9102C45.6576 25.2636 46.182 24.7395 46.8288 24.7395ZM10.4154 37.6175C11.0623 37.6175 11.5866 38.1417 11.5866 38.7882V42.0078C11.5866 42.5727 11.6989 43.1085 11.9012 43.5963C12.149 44.1936 11.8655 44.8785 11.268 45.1262C10.6705 45.3739 9.98529 45.0905 9.73752 44.4932C9.41929 43.7261 9.24423 42.8859 9.24423 42.0078V38.7882C9.24423 38.1417 9.76859 37.6175 10.4154 37.6175ZM46.8288 37.6175C47.4756 37.6175 48 38.1417 48 38.7882V42.0078C48 42.8859 47.8249 43.7261 47.5067 44.4932C47.2589 45.0905 46.5737 45.3739 45.9762 45.1262C45.3787 44.8785 45.0952 44.1936 45.343 43.5963C45.5453 43.1085 45.6576 42.5727 45.6576 42.0078V38.7882C45.6576 38.1417 46.182 37.6175 46.8288 37.6175ZM12.6193 46.477C12.8671 45.8798 13.5523 45.5964 14.1498 45.844C14.6378 46.0463 15.1738 46.1585 15.739 46.1585H18.9598C19.6066 46.1585 20.131 46.6827 20.131 47.3293C20.131 47.9758 19.6066 48.5 18.9598 48.5H15.739C14.8605 48.5 14.02 48.325 13.2526 48.0069C12.6551 47.7592 12.3716 47.0743 12.6193 46.477ZM44.6249 46.477C44.8727 47.0743 44.5891 47.7592 43.9916 48.0069C43.2242 48.325 42.3837 48.5 41.5052 48.5H38.2844C37.6376 48.5 37.1132 47.9758 37.1132 47.3293C37.1132 46.6827 37.6376 46.1585 38.2844 46.1585H41.5052C42.0704 46.1585 42.6064 46.0463 43.0944 45.844C43.6919 45.5964 44.3771 45.8798 44.6249 46.477ZM24.2302 47.3293C24.2302 46.6827 24.7545 46.1585 25.4013 46.1585H31.8429C32.4897 46.1585 33.0141 46.6827 33.0141 47.3293C33.0141 47.9758 32.4897 48.5 31.8429 48.5H25.4013C24.7545 48.5 24.2302 47.9758 24.2302 47.3293Z" fill="#8486B4"/>
</svg>
