<svg width="36" height="37" viewBox="0 0 36 37" fill="none" xmlns="http://www.w3.org/2000/svg">
<g clip-path="url(#clip0_7767_175238)">
<mask id="path-1-outside-1_7767_175238" maskUnits="userSpaceOnUse" x="1" y="0.5" width="23" height="37" fill="black">
<rect fill="white" x="1" y="0.5" width="23" height="37"/>
<path d="M21.4919 4.6342C21.39 4.66067 21.2828 4.65805 21.1823 4.62663C21.0819 4.59521 20.9922 4.53624 20.9236 4.45642C20.6697 4.21543 20.3603 4.04095 20.0229 3.94849C19.8022 3.87262 19.6165 3.71922 19.5002 3.51674L19.4495 3.42531C19.4495 3.42531 19.1222 2.76754 18.8 2.56182C18.7394 2.51689 18.6646 2.49526 18.5894 2.50087C18.2215 2.56436 17.1762 3.30087 16.8692 3.60817C16.5622 3.91547 14.9638 4.28626 13.8576 4.65452C12.7515 5.02277 11.5742 7.30086 11.3383 7.66911C11.1023 8.03736 10.1712 8.34466 9.56228 8.9618C8.95337 9.57894 6.55071 13.391 6.0103 14.1275C5.46989 14.864 3.51629 17.8634 3.18393 18.6811C2.95051 19.2576 2.95051 23.7046 3.1205 24.3878C3.25243 24.9135 4.27997 26.4449 4.82799 27.2957C5.5592 28.2596 6.40717 29.1289 7.35244 29.8836C7.49959 30.0005 7.64167 30.1046 7.76853 30.1859C7.87765 30.2555 7.96545 30.3539 8.02224 30.4703C8.23552 30.8976 8.42607 31.3359 8.5931 31.7833C8.77323 32.3852 9.13096 32.3395 8.68189 33.2639C8.65802 33.3113 8.64502 33.3633 8.64384 33.4163C8.64403 33.5592 8.69029 33.6981 8.77576 33.8125C8.96097 34.0665 8.96098 34.1808 9.14619 34.3052C9.23753 34.3662 9.36184 34.3052 9.46079 34.229C9.51778 34.1833 9.58715 34.1557 9.65997 34.1498C9.73278 34.1439 9.80569 34.16 9.86927 34.196C10.0517 34.3056 10.2407 34.404 10.4351 34.4906C10.6203 34.5516 10.808 34.3078 10.742 33.9979C10.6634 33.617 10.978 33.1116 10.978 32.9389C10.978 32.5986 10.8359 32.4309 11.0186 31.5065C11.2013 30.582 11.2723 29.8455 11.4499 29.5382C11.6275 29.2309 13.3705 27.4684 14.0555 26.4424C14.4285 25.8786 16.3948 23.2424 16.4455 23.1916C16.6172 22.9329 16.7338 22.6415 16.788 22.3357C16.8413 21.9903 17.3411 20.6976 17.4705 19.0519C17.4679 19.0309 17.4679 19.0095 17.4705 18.9884C17.5974 18.5364 19.0334 13.9319 19.5002 13.2742C19.8098 12.8475 20.0609 12.3345 20.7079 10.8158C21.0429 10.2249 21.2527 9.57134 21.3244 8.89577C21.3802 7.98149 21.0453 8.45387 21.1697 7.28816C21.1938 7.07198 21.2547 6.86152 21.3498 6.66594C21.4386 6.48562 21.535 6.28245 21.5502 6.26213C21.7329 6.09197 21.9333 5.19546 21.9257 4.99229C21.9247 4.93884 21.9121 4.88624 21.8889 4.8381C21.8656 4.78997 21.8322 4.74744 21.791 4.71342C21.7498 4.67941 21.7018 4.65472 21.6501 4.64104C21.5985 4.62737 21.5445 4.62503 21.4919 4.6342Z"/>
</mask>
<path d="M21.4919 4.6342C21.39 4.66067 21.2828 4.65805 21.1823 4.62663C21.0819 4.59521 20.9922 4.53624 20.9236 4.45642C20.6697 4.21543 20.3603 4.04095 20.0229 3.94849C19.8022 3.87262 19.6165 3.71922 19.5002 3.51674L19.4495 3.42531C19.4495 3.42531 19.1222 2.76754 18.8 2.56182C18.7394 2.51689 18.6646 2.49526 18.5894 2.50087C18.2215 2.56436 17.1762 3.30087 16.8692 3.60817C16.5622 3.91547 14.9638 4.28626 13.8576 4.65452C12.7515 5.02277 11.5742 7.30086 11.3383 7.66911C11.1023 8.03736 10.1712 8.34466 9.56228 8.9618C8.95337 9.57894 6.55071 13.391 6.0103 14.1275C5.46989 14.864 3.51629 17.8634 3.18393 18.6811C2.95051 19.2576 2.95051 23.7046 3.1205 24.3878C3.25243 24.9135 4.27997 26.4449 4.82799 27.2957C5.5592 28.2596 6.40717 29.1289 7.35244 29.8836C7.49959 30.0005 7.64167 30.1046 7.76853 30.1859C7.87765 30.2555 7.96545 30.3539 8.02224 30.4703C8.23552 30.8976 8.42607 31.3359 8.5931 31.7833C8.77323 32.3852 9.13096 32.3395 8.68189 33.2639C8.65802 33.3113 8.64502 33.3633 8.64384 33.4163C8.64403 33.5592 8.69029 33.6981 8.77576 33.8125C8.96097 34.0665 8.96098 34.1808 9.14619 34.3052C9.23753 34.3662 9.36184 34.3052 9.46079 34.229C9.51778 34.1833 9.58715 34.1557 9.65997 34.1498C9.73278 34.1439 9.80569 34.16 9.86927 34.196C10.0517 34.3056 10.2407 34.404 10.4351 34.4906C10.6203 34.5516 10.808 34.3078 10.742 33.9979C10.6634 33.617 10.978 33.1116 10.978 32.9389C10.978 32.5986 10.8359 32.4309 11.0186 31.5065C11.2013 30.582 11.2723 29.8455 11.4499 29.5382C11.6275 29.2309 13.3705 27.4684 14.0555 26.4424C14.4285 25.8786 16.3948 23.2424 16.4455 23.1916C16.6172 22.9329 16.7338 22.6415 16.788 22.3357C16.8413 21.9903 17.3411 20.6976 17.4705 19.0519C17.4679 19.0309 17.4679 19.0095 17.4705 18.9884C17.5974 18.5364 19.0334 13.9319 19.5002 13.2742C19.8098 12.8475 20.0609 12.3345 20.7079 10.8158C21.0429 10.2249 21.2527 9.57134 21.3244 8.89577C21.3802 7.98149 21.0453 8.45387 21.1697 7.28816C21.1938 7.07198 21.2547 6.86152 21.3498 6.66594C21.4386 6.48562 21.535 6.28245 21.5502 6.26213C21.7329 6.09197 21.9333 5.19546 21.9257 4.99229C21.9247 4.93884 21.9121 4.88624 21.8889 4.8381C21.8656 4.78997 21.8322 4.74744 21.791 4.71342C21.7498 4.67941 21.7018 4.65472 21.6501 4.64104C21.5985 4.62737 21.5445 4.62503 21.4919 4.6342Z" fill="#FFF9FE"/>
<path d="M21.4919 4.6342L21.1487 2.66386L21.068 2.67791L20.9888 2.6985L21.4919 4.6342ZM20.9236 4.45642L22.4396 3.15199L22.3738 3.07547L22.3006 3.00597L20.9236 4.45642ZM20.0229 3.94849L19.3726 5.83982L19.4329 5.86055L19.4944 5.87739L20.0229 3.94849ZM19.5002 3.51674L17.7515 4.48733L17.7586 4.50011L17.7659 4.51279L19.5002 3.51674ZM19.4495 3.42531L17.6589 4.31626L17.6789 4.35655L17.7008 4.3959L19.4495 3.42531ZM18.8 2.56182L17.6091 4.16863L17.665 4.21009L17.7237 4.24756L18.8 2.56182ZM18.5894 2.50087L18.4406 0.50641L18.3444 0.51359L18.2492 0.530008L18.5894 2.50087ZM3.18393 18.6811L1.33111 17.9281L1.33011 17.9306L3.18393 18.6811ZM3.1205 24.3878L1.17968 24.8707L1.18065 24.8746L3.1205 24.3878ZM4.82799 27.2957L3.1466 28.3787L3.18817 28.4433L3.23457 28.5044L4.82799 27.2957ZM7.35244 29.8836L6.10456 31.4466L6.10888 31.45L7.35244 29.8836ZM7.76853 30.1859L6.68965 31.8699L6.69274 31.8719L7.76853 30.1859ZM8.02224 30.4703L6.22485 31.3474L6.22877 31.3555L6.23277 31.3635L8.02224 30.4703ZM8.5931 31.7833L10.5091 31.2099L10.4901 31.1462L10.4668 31.0839L8.5931 31.7833ZM8.68189 33.2639L10.4675 34.1649L10.4743 34.1514L10.4809 34.1378L8.68189 33.2639ZM8.64384 33.4163L6.64434 33.3719L6.64381 33.3954L6.64384 33.4189L8.64384 33.4163ZM8.77576 33.8125L10.3917 32.6341L10.3848 32.6247L10.3779 32.6153L8.77576 33.8125ZM9.14619 34.3052L8.03077 35.9653L8.03602 35.9688L9.14619 34.3052ZM9.46079 34.229L10.681 35.8137L10.6971 35.8013L10.7129 35.7886L9.46079 34.229ZM9.86927 34.196L10.8993 32.4816L10.8772 32.4684L10.8548 32.4557L9.86927 34.196ZM10.4351 34.4906L9.62112 36.3175L9.71364 36.3587L9.80985 36.3904L10.4351 34.4906ZM10.742 33.9979L8.78331 34.4023L8.78588 34.4144L10.742 33.9979ZM14.0555 26.4424L15.7189 27.5529L15.7236 27.5458L14.0555 26.4424ZM16.4455 23.1916L17.8604 24.6051L18.0015 24.4639L18.1119 24.2976L16.4455 23.1916ZM16.788 22.3357L18.7573 22.6848L18.7612 22.6628L18.7647 22.6406L16.788 22.3357ZM17.4705 19.0519L19.4644 19.2087L19.4804 19.005L19.4549 18.8022L17.4705 19.0519ZM17.4705 18.9884L15.5449 18.4481L15.5047 18.5912L15.4862 18.7387L17.4705 18.9884ZM19.5002 13.2742L17.8814 12.0997L17.8753 12.1082L17.8692 12.1166L19.5002 13.2742ZM20.7079 10.8158L18.968 9.82943L18.9122 9.92785L18.8679 10.0319L20.7079 10.8158ZM21.3244 8.89577L23.3133 9.10685L23.318 9.06233L23.3207 9.01764L21.3244 8.89577ZM21.1697 7.28816L19.182 7.06646L19.1809 7.07607L21.1697 7.28816ZM21.3498 6.66594L19.5555 5.78233L19.5511 5.7914L21.3498 6.66594ZM21.5502 6.26213L20.187 4.79867L20.0566 4.9202L19.9497 5.0629L21.5502 6.26213ZM21.9257 4.99229L19.9261 5.03114L19.9265 5.04916L19.9271 5.06716L21.9257 4.99229ZM20.9888 2.6985C21.249 2.63088 21.5229 2.63759 21.7794 2.71784L20.5852 6.53542C21.0427 6.6785 21.531 6.69046 21.9949 6.5699L20.9888 2.6985ZM21.7794 2.71784C22.0359 2.79807 22.2646 2.94854 22.4396 3.15199L19.4075 5.76086C19.7199 6.12395 20.1279 6.39235 20.5852 6.53542L21.7794 2.71784ZM22.3006 3.00597C21.8078 2.5381 21.2069 2.1992 20.5514 2.01959L19.4944 5.87739C19.5137 5.8827 19.5317 5.89276 19.5465 5.90688L22.3006 3.00597ZM20.6731 2.05715C20.9106 2.1388 21.1099 2.30369 21.2346 2.52069L17.7659 4.51279C18.1231 5.13475 18.6938 5.60644 19.3726 5.83982L20.6731 2.05715ZM21.2489 2.54615L21.1982 2.45473L17.7008 4.3959L17.7515 4.48733L21.2489 2.54615ZM19.4495 3.42531C21.2401 2.53436 21.24 2.53413 21.2398 2.53389C21.2398 2.5338 21.2397 2.53356 21.2396 2.53339C21.2394 2.53306 21.2392 2.53271 21.2391 2.53236C21.2387 2.53165 21.2383 2.53089 21.2379 2.53009C21.2371 2.5285 21.2363 2.52673 21.2353 2.5248C21.2333 2.52093 21.231 2.51638 21.2284 2.5112C21.2231 2.50085 21.2165 2.4879 21.2085 2.47265C21.1927 2.44224 21.1714 2.40213 21.1454 2.35478C21.0942 2.26179 21.02 2.1326 20.9285 1.9901C20.8074 1.80149 20.4435 1.23827 19.8762 0.876084L17.7237 4.24756C17.6303 4.18789 17.5709 4.13454 17.5453 4.11024C17.5306 4.09636 17.5204 4.08569 17.5145 4.07934C17.5085 4.07291 17.5054 4.06923 17.5051 4.06888C17.5051 4.06884 17.5112 4.07622 17.5229 4.09247C17.5342 4.10828 17.5477 4.12804 17.5626 4.15132C17.5932 4.19898 17.621 4.24709 17.6413 4.28386C17.6509 4.3014 17.6577 4.31427 17.661 4.32065C17.6627 4.32378 17.6634 4.32516 17.663 4.32455C17.6629 4.32423 17.6625 4.32341 17.6618 4.32204C17.6614 4.32136 17.661 4.32054 17.6605 4.31958C17.6603 4.3191 17.66 4.31858 17.6598 4.31803C17.6596 4.31775 17.6595 4.31747 17.6593 4.31717C17.6593 4.31702 17.6592 4.3168 17.6591 4.31672C17.659 4.31649 17.6589 4.31626 19.4495 3.42531ZM19.9908 0.95502C19.5448 0.624443 18.9946 0.465091 18.4406 0.50641L18.7381 4.49533C18.3346 4.52543 17.9339 4.40934 17.6091 4.16863L19.9908 0.95502ZM18.2492 0.530008C17.8106 0.605709 17.4277 0.806886 17.2642 0.894476C17.0354 1.01704 16.8034 1.16141 16.597 1.29904C16.2192 1.55095 15.7496 1.89903 15.4543 2.19466L18.2841 5.02167C18.2696 5.03625 18.3124 4.99435 18.4368 4.89843C18.5464 4.81399 18.68 4.71777 18.8159 4.62715C18.9552 4.53429 19.0727 4.46343 19.153 4.42044C19.1931 4.39894 19.2046 4.39486 19.1913 4.40037C19.1837 4.40354 19.1602 4.41311 19.1234 4.42492C19.089 4.43593 19.0217 4.45582 18.9295 4.47173L18.2492 0.530008ZM15.4543 2.19466C15.5475 2.10133 15.6281 2.04283 15.6694 2.01465C15.7137 1.98439 15.7446 1.96758 15.7534 1.96288C15.768 1.95504 15.751 1.96507 15.6849 1.99137C15.552 2.04427 15.3515 2.1119 15.0755 2.19678C14.6046 2.34152 13.7929 2.56816 13.2259 2.75691L14.4894 6.55213C15.0286 6.37262 15.5692 6.22974 16.2508 6.0202C16.551 5.92793 16.8768 5.82222 17.1645 5.70766C17.347 5.63499 17.8786 5.42759 18.2841 5.02167L15.4543 2.19466ZM13.2259 2.75691C12.5123 2.99448 11.9666 3.46265 11.6124 3.81883C11.2304 4.20291 10.8979 4.6358 10.632 5.01661C10.1849 5.65676 9.60189 6.67191 9.6543 6.59012L13.0223 8.7481C13.1016 8.62427 13.2907 8.29248 13.396 8.11492C13.5442 7.86507 13.7199 7.58101 13.9113 7.30702C14.1074 7.02624 14.2914 6.79755 14.4486 6.6394C14.6336 6.45337 14.6499 6.49868 14.4894 6.55213L13.2259 2.75691ZM9.6543 6.59012C9.81732 6.3357 9.98855 6.23966 9.90634 6.29674C9.85056 6.33546 9.76775 6.38498 9.57252 6.50036C9.25973 6.68523 8.65221 7.03658 8.13861 7.55711L10.986 10.3665C11.0813 10.2699 11.2438 10.159 11.6078 9.94388C11.7509 9.85927 11.9832 9.72434 12.1874 9.58259C12.3651 9.45919 12.7413 9.18665 13.0223 8.7481L9.6543 6.59012ZM8.13861 7.55711C7.84541 7.85428 7.48255 8.35838 7.18853 8.77796C6.85396 9.25538 6.46814 9.83016 6.09389 10.3944C5.30854 11.5785 4.63078 12.6268 4.39781 12.9443L7.62279 15.3107C7.93023 14.8917 8.724 13.6657 9.42731 12.6054C9.7974 12.0474 10.1602 11.5074 10.4643 11.0735C10.6166 10.8561 10.7465 10.6765 10.8501 10.5399C10.9686 10.3837 11.0071 10.3451 10.986 10.3665L8.13861 7.55711ZM4.39781 12.9443C4.08502 13.3706 3.43136 14.3527 2.8291 15.3043C2.26838 16.1903 1.57996 17.3158 1.33111 17.9281L5.03675 19.4342C5.03512 19.4382 5.04174 19.4218 5.06224 19.3798C5.08169 19.3399 5.10834 19.2877 5.14319 19.2224C5.21324 19.0911 5.30513 18.9279 5.41639 18.7376C5.63866 18.3573 5.91747 17.9042 6.2091 17.4434C6.80183 16.5068 7.39517 15.6209 7.62279 15.3107L4.39781 12.9443ZM1.33011 17.9306C1.18977 18.2772 1.14245 18.6556 1.12231 18.8186C1.09303 19.0556 1.0715 19.3259 1.05515 19.6015C1.0222 20.157 1.00508 20.826 1.00098 21.482C0.996869 22.1396 1.00572 22.8083 1.02738 23.3665C1.0453 23.8284 1.07735 24.4594 1.17968 24.8707L5.06132 23.9049C5.07866 23.9745 5.04696 23.7935 5.02437 23.2114C5.00552 22.7257 4.99708 22.1185 5.0009 21.507C5.00473 20.8938 5.02075 20.3001 5.04813 19.8384C5.06195 19.6054 5.07739 19.4283 5.09212 19.3091C5.116 19.1159 5.11974 19.2292 5.03775 19.4317L1.33011 17.9306ZM1.18065 24.8746C1.27971 25.2693 1.47861 25.6563 1.60232 25.8876C1.7535 26.1702 1.93544 26.4768 2.11543 26.7689C2.47116 27.3463 2.89196 27.9834 3.1466 28.3787L6.50937 26.2127C6.21599 25.7572 5.84901 25.2032 5.52099 24.6708C5.3591 24.408 5.22518 24.1799 5.12946 24.001C5.00627 23.7707 5.02725 23.7691 5.06035 23.901L1.18065 24.8746ZM3.23457 28.5044C4.06583 29.6003 5.02987 30.5885 6.10456 31.4466L8.60031 28.3207C7.78448 27.6693 7.05256 26.919 6.4214 26.087L3.23457 28.5044ZM6.10888 31.45C6.28871 31.5928 6.48774 31.7406 6.68966 31.8699L8.8474 28.5018C8.79561 28.4686 8.71047 28.4081 8.59599 28.3173L6.10888 31.45ZM6.69274 31.8719C6.49128 31.7433 6.32945 31.5618 6.22485 31.3474L9.81964 29.5932C9.60144 29.146 9.26401 28.7676 8.84432 28.4998L6.69274 31.8719ZM6.23277 31.3635C6.41457 31.7277 6.57701 32.1013 6.71939 32.4828L10.4668 31.0839C10.2751 30.5704 10.0565 30.0675 9.81171 29.5771L6.23277 31.3635ZM6.67706 32.3567C6.72731 32.5246 6.78457 32.6721 6.84288 32.8018C6.90002 32.929 6.95522 33.0321 6.99144 33.0983C7.00033 33.1146 7.0087 33.1297 7.01511 33.1413C7.02219 33.1541 7.02658 33.1621 7.03086 33.1699C7.03944 33.1855 7.03945 33.1859 7.03629 33.1796C7.02967 33.1666 6.99547 33.0988 6.96377 32.9969C6.92961 32.8872 6.90583 32.7628 6.90036 32.6308C6.89507 32.5033 6.90828 32.4023 6.92101 32.3381C6.93305 32.2775 6.94474 32.2493 6.93962 32.263C6.93463 32.2764 6.91874 32.3163 6.88292 32.39L10.4809 34.1378C10.754 33.5756 11.0769 32.7525 10.7831 31.8084C10.7235 31.6169 10.6516 31.4644 10.6012 31.3655C10.5615 31.2874 10.5033 31.1835 10.5008 31.1789C10.4772 31.1357 10.4961 31.1662 10.5091 31.2099L6.67706 32.3567ZM6.89631 32.363C6.73809 32.6766 6.65213 33.0213 6.64434 33.3719L10.6433 33.4608C10.6379 33.7054 10.5779 33.9459 10.4675 34.1649L6.89631 32.363ZM6.64384 33.4189C6.64458 33.9921 6.83023 34.5501 7.17366 35.0097L10.3779 32.6153C10.5503 32.8461 10.6435 33.1262 10.6438 33.4138L6.64384 33.4189ZM7.15983 34.991C7.18934 35.0314 7.12461 34.9376 7.25379 35.1493C7.30943 35.2405 7.40534 35.3889 7.54907 35.5487C7.69784 35.7142 7.86031 35.8507 8.03078 35.9653L10.2616 32.6451C10.2977 32.6694 10.3408 32.7012 10.3876 32.7414C10.435 32.7821 10.4806 32.8266 10.5234 32.8741C10.6092 32.9696 10.6588 33.0503 10.6682 33.0656C10.6709 33.0701 10.6709 33.0703 10.6572 33.0465C10.6466 33.0282 10.6257 32.992 10.602 32.9523C10.5503 32.8659 10.4822 32.7581 10.3917 32.6341L7.15983 34.991ZM8.03602 35.9688C8.76207 36.4533 9.50627 36.3497 9.89714 36.2275C10.2713 36.1106 10.5425 35.9203 10.681 35.8137L8.2406 32.6444C8.28012 32.6139 8.43974 32.4922 8.70413 32.4096C8.98528 32.3217 9.62165 32.2181 10.2564 32.6416L8.03602 35.9688ZM10.7129 35.7886C10.4579 35.9933 10.1473 36.1169 9.82109 36.1433L9.49884 32.1563C9.027 32.1944 8.57762 32.3733 8.20871 32.6694L10.7129 35.7886ZM9.82109 36.1433C9.49476 36.1697 9.16825 36.0975 8.88373 35.9363L10.8548 32.4557C10.4431 32.2226 9.9708 32.1181 9.49884 32.1563L9.82109 36.1433ZM8.83927 35.9104C9.09145 36.0619 9.35256 36.1978 9.62112 36.3175L11.249 32.6637C11.1288 32.6102 11.012 32.5493 10.8993 32.4816L8.83927 35.9104ZM9.80985 36.3904C11.026 36.7906 11.9614 36.0666 12.343 35.4985C12.74 34.9074 12.8308 34.2044 12.6982 33.5814L8.78588 34.4144C8.71921 34.1012 8.74911 33.6751 9.02253 33.2681C9.28043 32.8842 10.0293 32.2516 11.0603 32.5908L9.80985 36.3904ZM12.7007 33.5935C12.7499 33.8315 12.7227 34.0021 12.7148 34.0462C12.706 34.0958 12.6985 34.1072 12.7171 34.0542C12.7254 34.0307 12.7356 34.0033 12.7515 33.9616C12.764 33.9287 12.7885 33.8651 12.8093 33.808C12.8298 33.7517 12.8642 33.6547 12.8946 33.5428C12.9105 33.4845 12.9297 33.4061 12.9455 33.3142C12.9608 33.2251 12.978 33.0949 12.978 32.9389H8.97799C8.97799 32.6962 9.02697 32.522 9.03462 32.4939C9.04814 32.4441 9.05856 32.418 9.05079 32.4393C9.04332 32.4598 9.03526 32.4806 9.01371 32.5372C8.99549 32.585 8.97008 32.6521 8.94394 32.7264C8.89375 32.869 8.82232 33.0889 8.77662 33.3458C8.73192 33.5972 8.69488 33.9738 8.78335 34.4023L12.7007 33.5935ZM12.978 32.9389C12.978 32.7129 12.9533 32.528 12.9409 32.4356C12.927 32.3322 12.9267 32.3295 12.9258 32.3151C12.9257 32.3132 12.9239 32.2918 12.9285 32.2357C12.9335 32.1744 12.9466 32.0668 12.9807 31.8942L9.05653 31.1188C8.94051 31.7059 8.90767 32.1562 8.9338 32.5683C8.94557 32.7539 8.96935 32.9148 8.9764 32.9674C8.98493 33.031 8.97799 32.9947 8.97799 32.9389H12.978ZM12.9807 31.8942C13.0311 31.6388 13.0731 31.4003 13.109 31.1918C13.1466 30.974 13.1743 30.8082 13.2025 30.6562C13.2308 30.5038 13.2503 30.4176 13.2631 30.3707C13.2807 30.3058 13.2646 30.3952 13.1815 30.539L9.7183 28.5375C9.54642 28.8349 9.4548 29.1316 9.4035 29.3201C9.34729 29.5266 9.30428 29.74 9.26978 29.9257C9.18433 30.3858 9.15255 30.6329 9.05653 31.1188L12.9807 31.8942ZM13.1815 30.539C13.1076 30.6668 13.0486 30.727 13.1245 30.6355C13.1689 30.582 13.2366 30.5037 13.332 30.3962C13.5314 30.1713 13.7604 29.9203 14.0527 29.5937C14.5775 29.0074 15.2838 28.2045 15.7189 27.5529L12.3922 25.3319C12.1422 25.7063 11.6345 26.2977 11.0722 26.926C10.8209 27.2067 10.538 27.518 10.3393 27.7421C10.2356 27.8591 10.1327 27.977 10.045 28.0826C9.98891 28.1504 9.83658 28.3328 9.7183 28.5375L13.1815 30.539ZM15.7236 27.5458C15.8736 27.319 16.419 26.5711 16.9791 25.8143C17.2491 25.4493 17.5087 25.1009 17.7032 24.8416C17.8007 24.7116 17.8801 24.6063 17.9355 24.5334C17.9637 24.4963 17.9827 24.4715 17.9936 24.4575C17.9996 24.4498 17.9989 24.4508 17.9942 24.4567C17.9921 24.4593 17.984 24.4694 17.9722 24.4834C17.9663 24.4904 17.9556 24.5031 17.9416 24.5188C17.9313 24.5305 17.9014 24.5641 17.8604 24.6051L15.0306 21.7781C14.9631 21.8457 14.9131 21.9061 14.9113 21.9083C14.8961 21.9264 14.8836 21.9418 14.8764 21.9509C14.8611 21.9698 14.8465 21.9885 14.8352 22.003C14.8116 22.0335 14.7827 22.0711 14.7516 22.1121C14.6883 22.1953 14.6029 22.3087 14.5031 22.4417C14.3029 22.7087 14.0381 23.064 13.7637 23.4349C13.2346 24.1499 12.6104 25.002 12.3875 25.339L15.7236 27.5458ZM18.1119 24.2976C18.4355 23.81 18.6552 23.261 18.7573 22.6848L14.8187 21.9866C14.8124 22.0221 14.7989 22.0558 14.7792 22.0856L18.1119 24.2976ZM18.7647 22.6406C18.7534 22.7135 18.7458 22.7222 18.8206 22.4625C18.8755 22.2724 18.955 21.9996 19.0372 21.6817C19.2021 21.0434 19.3874 20.1871 19.4644 19.2087L15.4767 18.8952C15.4242 19.5625 15.295 20.1754 15.1643 20.6812C15.0986 20.9353 15.0352 21.1533 14.9773 21.3542C14.9394 21.4854 14.8493 21.7852 14.8114 22.0308L18.7647 22.6406ZM19.4549 18.8022C19.4731 18.9469 19.4731 19.0934 19.4549 19.2382L15.4862 18.7387C15.4626 18.9256 15.4626 19.1148 15.4862 19.3017L19.4549 18.8022ZM19.3961 19.5288C19.446 19.3512 19.8242 18.1243 20.2538 16.8452C20.4669 16.2106 20.6845 15.5878 20.8731 15.0926C20.9678 14.8438 21.0485 14.6451 21.1123 14.5012C21.1947 14.3155 21.1996 14.3353 21.1312 14.4317L17.8692 12.1166C17.6841 12.3775 17.5421 12.6851 17.4561 12.8788C17.3515 13.1145 17.2424 13.3869 17.1349 13.6693C16.9189 14.2365 16.682 14.9164 16.462 15.5717C16.0251 16.8723 15.6219 18.1736 15.5449 18.4481L19.3961 19.5288ZM21.1191 14.4486C21.5852 13.8061 21.92 13.0736 22.5479 11.5996L18.8679 10.0319C18.2019 11.5953 18.0343 11.8889 17.8814 12.0997L21.1191 14.4486ZM22.4478 11.8021C22.918 10.9726 23.2126 10.0551 23.3133 9.10685L19.3356 8.68469C19.2928 9.08757 19.1677 9.47724 18.968 9.82943L22.4478 11.8021ZM23.3207 9.01764C23.3407 8.68953 23.3354 8.3522 23.2633 8.0103C23.1897 7.66096 23.0466 7.36819 23.0578 7.39413C23.0618 7.40332 23.0849 7.45774 23.1059 7.53334C23.1268 7.60867 23.1361 7.67023 23.1398 7.70872C23.1454 7.76585 23.1341 7.72754 23.1584 7.50025L19.1809 7.07607C19.143 7.43163 19.127 7.77141 19.1587 8.09641C19.1963 8.48326 19.2932 8.7657 19.3849 8.97837C19.4573 9.14621 19.3797 8.97963 19.3493 8.83529C19.3205 8.69839 19.336 8.64487 19.3281 8.7739L23.3207 9.01764ZM23.1573 7.50985C23.1562 7.52037 23.1532 7.53073 23.1485 7.54047L19.5511 5.7914C19.3562 6.19232 19.2314 6.62358 19.182 7.06647L23.1573 7.50985ZM23.144 7.54953C23.1684 7.50005 23.1928 7.45007 23.2148 7.40482C23.2376 7.35792 23.2568 7.31834 23.2742 7.28274C23.2827 7.26541 23.2899 7.2508 23.2959 7.23862C23.3021 7.2261 23.3059 7.21854 23.3078 7.21477C23.3087 7.21302 23.3085 7.2135 23.3073 7.2157C23.3064 7.21755 23.3031 7.22374 23.2982 7.23283C23.2941 7.24034 23.2835 7.25969 23.2685 7.28514C23.2608 7.29816 23.2485 7.31862 23.2326 7.34351C23.2244 7.35627 23.2138 7.37241 23.2012 7.39093C23.1888 7.40904 23.1719 7.43328 23.1508 7.46136L19.9497 5.0629C19.8803 5.15541 19.8338 5.23496 19.8244 5.25092C19.8062 5.28167 19.7919 5.30764 19.7836 5.323C19.7665 5.35437 19.7517 5.38331 19.7421 5.40211C19.722 5.4416 19.7 5.48641 19.681 5.52533C19.6361 5.61716 19.6 5.6921 19.5556 5.78234L23.144 7.54953ZM22.9134 7.72558C23.3212 7.34574 23.503 6.866 23.5446 6.76184C23.6286 6.55118 23.6941 6.33441 23.7422 6.15344C23.7917 5.96712 23.834 5.77648 23.8648 5.60388C23.8847 5.49259 23.9352 5.20666 23.9243 4.91742L19.9271 5.06716C19.9243 4.99197 19.9272 4.93697 19.9286 4.9152C19.9301 4.8893 19.932 4.87299 19.9324 4.86903C19.9333 4.86183 19.9323 4.87195 19.9271 4.90109C19.9167 4.95906 19.8989 5.04127 19.8765 5.12574C19.8656 5.16659 19.8551 5.20248 19.8458 5.23177C19.8412 5.24617 19.8373 5.25763 19.8343 5.26621C19.8328 5.27043 19.8316 5.27365 19.8307 5.27592C19.8299 5.2782 19.8295 5.27926 19.8295 5.27917C19.8295 5.27909 19.8302 5.27752 19.8314 5.27456C19.8327 5.27162 19.8348 5.26683 19.8378 5.26036C19.8433 5.24845 19.8544 5.22517 19.8719 5.19376C19.8887 5.16361 19.9181 5.11374 19.9619 5.05295C20.0036 4.99511 20.077 4.90115 20.187 4.79867L22.9134 7.72558ZM23.9253 4.95344C23.9187 4.61214 23.8385 4.27605 23.6898 3.96825L20.0879 5.70796C19.9858 5.49643 19.9307 5.26553 19.9261 5.03114L23.9253 4.95344ZM23.6898 3.96825C23.5412 3.66052 23.3278 3.38854 23.0642 3.17097L20.5179 6.25587C20.3367 6.10633 20.1901 5.91942 20.0879 5.70796L23.6898 3.96825ZM23.0642 3.17097C22.8005 2.95331 22.4927 2.79525 22.1621 2.70769L21.1381 6.5744C20.9108 6.51419 20.6992 6.4055 20.5179 6.25587L23.0642 3.17097ZM22.1621 2.70769C21.8314 2.62012 21.4857 2.60516 21.1487 2.66386L21.835 6.60454C21.6033 6.6449 21.3655 6.63462 21.1381 6.5744L22.1621 2.70769Z" fill="#F1AFCE" mask="url(#path-1-outside-1_7767_175238)"/>
<mask id="mask0_7767_175238" style="mask-type:alpha" maskUnits="userSpaceOnUse" x="3" y="2" width="19" height="33">
<path d="M21.4919 4.6342C21.39 4.66067 21.2828 4.65805 21.1823 4.62663C21.0819 4.59521 20.9922 4.53624 20.9236 4.45642C20.6697 4.21543 20.3603 4.04095 20.0229 3.94849C19.8022 3.87262 19.6165 3.71922 19.5002 3.51674L19.4495 3.42531C19.4495 3.42531 19.1222 2.76754 18.8 2.56182C18.7394 2.51689 18.6646 2.49526 18.5894 2.50087C18.2215 2.56436 17.1762 3.30087 16.8692 3.60817C16.5622 3.91547 14.9638 4.28626 13.8576 4.65452C12.7515 5.02277 11.5742 7.30086 11.3383 7.66911C11.1023 8.03736 10.1712 8.34466 9.56228 8.9618C8.95337 9.57894 6.55071 13.391 6.0103 14.1275C5.46989 14.864 3.51629 17.8634 3.18393 18.6811C2.95051 19.2576 2.95051 23.7046 3.1205 24.3878C3.25243 24.9135 4.27997 26.4449 4.82799 27.2957C5.5592 28.2596 6.40717 29.1289 7.35244 29.8836C7.49959 30.0005 7.64167 30.1046 7.76853 30.1859C7.87765 30.2555 7.96545 30.3539 8.02224 30.4703C8.23552 30.8976 8.42607 31.3359 8.5931 31.7833C8.77323 32.3852 9.13096 32.3395 8.68189 33.2639C8.65802 33.3113 8.64502 33.3633 8.64384 33.4163C8.64403 33.5592 8.69029 33.6981 8.77576 33.8125C8.96097 34.0665 8.96098 34.1808 9.14619 34.3052C9.23753 34.3662 9.36185 34.3052 9.46079 34.229C9.51778 34.1833 9.58715 34.1557 9.65997 34.1498C9.73278 34.1439 9.80569 34.16 9.86927 34.196C10.0517 34.3056 10.2407 34.404 10.4351 34.4906C10.6203 34.5516 10.808 34.3078 10.742 33.9979C10.6634 33.617 10.978 33.1116 10.978 32.9389C10.978 32.5985 10.8359 32.4309 11.0186 31.5065C11.2013 30.582 11.2723 29.8455 11.4499 29.5382C11.6275 29.2309 13.3705 27.4684 14.0555 26.4424C14.4285 25.8786 16.3948 23.2424 16.4455 23.1916C16.6172 22.9329 16.7338 22.6415 16.788 22.3357C16.8413 21.9903 17.3411 20.6976 17.4705 19.0519C17.4679 19.0308 17.4679 19.0095 17.4705 18.9884C17.5974 18.5364 19.0334 13.9319 19.5002 13.2742C19.8098 12.8475 20.0609 12.3345 20.7079 10.8158C21.0429 10.2249 21.2527 9.57134 21.3244 8.89577C21.3802 7.98149 21.0453 8.45387 21.1697 7.28816C21.1938 7.07198 21.2547 6.86152 21.3498 6.66594C21.4386 6.48562 21.535 6.28244 21.5502 6.26213C21.7329 6.09197 21.9333 5.19546 21.9257 4.99229C21.9247 4.93883 21.9121 4.88624 21.8889 4.8381C21.8656 4.78997 21.8322 4.74743 21.791 4.71342C21.7498 4.67941 21.7018 4.65472 21.6501 4.64104C21.5985 4.62737 21.5445 4.62503 21.4919 4.6342Z" fill="#828282"/>
</mask>
<g mask="url(#mask0_7767_175238)">
<path d="M13.3159 8.16934C9.73701 6.90619 13.737 3.53778 14.5791 2.69568C15.7019 2.69568 19.0001 2.48515 23.2107 1.64305C28.4738 0.590422 24.6843 2.69568 24.4738 8.16934C24.2633 13.643 21.3159 13.643 19.8422 11.1167C18.3686 8.5904 16.8949 9.4325 13.3159 8.16934Z" fill="#FAD2E6"/>
<path d="M15.328 7.85431C12.9832 7.01206 14.0272 6.41568 14.5789 5.85418C15.6316 5.2226 16.7255 5.31393 17.5262 4.8015C18.0429 4.47088 18.1286 3.54803 19.2104 3.32782C22.6587 2.62595 22.7761 4.20456 22.6382 7.85431C22.5003 11.5041 20.5693 11.5041 19.6038 9.81956C18.6383 8.13506 17.6728 8.69656 15.328 7.85431Z" fill="#F294C0"/>
<path d="M20.895 6.34574C21.2766 8.69852 20.0653 7.65109 19.4213 7.6511C17.2319 6.73106 18.509 5.92922 19.4213 5.64331C20.4739 5.43272 20.7811 5.64334 20.895 6.34574Z" fill="#F96DAE"/>
<path d="M13.3156 12.8015C13.9893 8.92783 11.07 6.27521 9.52615 5.43311C9.03493 5.92433 7.9262 7.49626 7.42093 9.85414C6.78936 12.8015 3.84195 13.4331 0.263019 14.4857C-3.31592 15.5383 -2.45429 25.012 3.21038 25.012C5.52615 25.012 4.68406 23.3278 6.78931 19.3278C8.89457 15.3278 12.4735 17.6436 13.3156 12.8015Z" fill="#F294C0" fill-opacity="0.5"/>
<path d="M11.3527 13.2921C11.8164 10.7097 9.80695 8.94128 8.74424 8.37988C8.40612 8.70737 7.64292 9.75532 7.29513 11.3272C6.86038 13.2921 4.83154 13.7132 2.36799 14.415C-0.0955642 15.1167 0.497536 21.4325 4.3968 21.4325C5.99085 21.4325 5.4112 20.3097 6.86035 17.643C8.3095 14.9764 10.7731 16.5202 11.3527 13.2921Z" fill="#F294C0"/>
<path d="M8.85903 14.0215C9.10016 12.6053 8.05523 11.6355 7.50262 11.3276C7.3268 11.5072 6.92993 12.0819 6.74908 12.9439C6.52301 14.0215 5.46802 14.2524 4.18697 14.6372C2.90592 15.022 3.21433 18.4855 5.24195 18.4855C6.07086 18.4855 5.76944 17.8698 6.523 16.4074C7.27655 14.9451 8.5576 15.7917 8.85903 14.0215Z" fill="#F96DAE"/>
<path d="M12.6777 18.4638C14.7893 15.7485 13.5262 14.2747 15.842 13.2221C20.4735 10.4853 22.7829 14.0428 19.4145 16.9901C16.0461 19.9375 19.204 18.4638 17.9408 26.4638C16.6777 34.4637 13.7303 31.0953 12.6777 29.6217L12.6425 29.5723C11.6155 28.1342 11.1828 27.5284 9.31567 26.6958C8.73885 26.4385 8.0493 25.5798 8.46722 23.5164C9.31567 19.3274 9.95144 21.9695 12.6777 18.4638Z" fill="#FDE6F2"/>
<path d="M13.0512 19.2981C14.6645 17.2897 13.6994 16.1996 15.4687 15.421C19.0071 13.3966 20.7715 16.028 18.1981 18.2081C15.6246 20.3882 18.0372 19.2981 17.0722 25.2155C16.1072 31.1329 13.8554 28.6414 13.0512 27.5513L13.0243 27.5148C12.2397 26.4511 11.9091 26.003 10.4827 25.3871C10.042 25.1969 9.51516 24.5617 9.83445 23.0354C10.4827 19.9369 10.9684 21.8913 13.0512 19.2981Z" fill="#FAD2E6"/>
<path d="M14.4023 19.388C15.0335 18.4428 14.6559 17.9298 15.3482 17.5634C16.7328 16.6108 17.4232 17.8491 16.4162 18.875C15.4092 19.9009 16.3533 19.388 15.9757 22.1726C15.5981 24.9573 14.7169 23.7848 14.4023 23.2718L14.3917 23.2547C14.0847 22.7541 13.9554 22.5432 13.3972 22.2534C13.2247 22.1638 13.0186 21.8649 13.1435 21.1467C13.3972 19.6886 13.5872 20.6083 14.4023 19.388Z" fill="#F294C0"/>
<path d="M4.89492 28.8017C4.55808 28.1281 4.68436 26.4157 5.10542 26.2754C7.63172 24.8017 9.10547 28.8017 10.1581 32.1701C11.2107 35.5386 7.21074 35.1175 6.36864 34.6965C5.52654 34.2754 6.78969 33.2228 7.00022 32.1701C7.21074 31.1175 5.31597 29.6438 4.89492 28.8017Z" fill="#FDE6F2"/>
<path d="M5.65609 29.3171C5.42941 28.8452 5.5144 27.6457 5.79774 27.5474C7.49782 26.5151 8.48958 29.3171 9.19794 31.6766C9.9063 34.0362 7.21452 33.7412 6.64783 33.4463C6.08114 33.1513 6.93117 32.414 7.07285 31.6766C7.21452 30.9393 5.93944 29.907 5.65609 29.3171Z" fill="#F294C0"/>
</g>
<path d="M26.125 33.6875C26.2188 33.8125 26.3125 33.9323 26.4062 34.0469C26.5 34.151 26.5885 34.2552 26.6719 34.3594C26.6927 34.3802 26.6979 34.4062 26.6875 34.4375C26.6771 34.4688 26.6562 34.4844 26.625 34.4844C26.2708 34.5365 25.9688 34.599 25.7188 34.6719C25.4688 34.7344 25.276 34.7969 25.1406 34.8594C25.0781 34.8906 25.0469 34.9375 25.0469 35C25.0469 35.0625 25.0729 35.1094 25.125 35.1406C25.3438 35.2344 25.6771 35.3333 26.125 35.4375C26.5833 35.5417 27.1615 35.5938 27.8594 35.5938C27.8906 35.5938 27.9167 35.5938 27.9375 35.5938C27.9688 35.5938 27.9948 35.5938 28.0156 35.5938C28.0365 35.5938 28.0573 35.5938 28.0781 35.5938C28.099 35.5938 28.1198 35.5938 28.1406 35.5938C28.849 35.5938 29.4323 35.5417 29.8906 35.4375C30.349 35.3333 30.6875 35.2344 30.9062 35.1406C30.9583 35.1094 30.9844 35.0625 30.9844 35C30.9844 34.9375 30.9583 34.8906 30.9062 34.8594C30.7604 34.7969 30.5573 34.7292 30.2969 34.6562C30.0469 34.5833 29.7396 34.526 29.375 34.4844C29.3438 34.474 29.3229 34.4583 29.3125 34.4375C29.3021 34.4062 29.3073 34.3802 29.3281 34.3594C29.4115 34.2552 29.4948 34.151 29.5781 34.0469C29.6719 33.9323 29.7656 33.8125 29.8594 33.6875C29.8698 33.6771 29.8802 33.6719 29.8906 33.6719C29.9115 33.6615 29.9271 33.6562 29.9375 33.6562C30.5 33.7604 30.9896 33.9167 31.4062 34.125C31.8333 34.3333 32.0469 34.625 32.0469 35C32.0469 35.2917 31.9115 35.5365 31.6406 35.7344C31.3594 35.9323 31.0104 36.0833 30.5938 36.1875C30.1875 36.3021 29.75 36.3854 29.2812 36.4375C28.8125 36.4792 28.3906 36.5 28.0156 36.5C27.6406 36.5 27.2188 36.4792 26.75 36.4375C26.2812 36.3854 25.8385 36.3021 25.4219 36.1875C25.0156 36.0833 24.6719 35.9323 24.3906 35.7344C24.1198 35.5365 23.9844 35.2917 23.9844 35C23.9844 34.6354 24.1927 34.349 24.6094 34.1406C25.026 33.9219 25.5104 33.7656 26.0625 33.6719C26.0729 33.6615 26.0833 33.6615 26.0938 33.6719C26.1042 33.6719 26.1146 33.6771 26.125 33.6875ZM23.0312 26.4844C23.0312 25.8281 23.1458 25.2083 23.375 24.625C23.6146 24.0521 23.9427 23.5417 24.3594 23.0938C24.776 22.6458 25.2604 22.2812 25.8125 22C26.375 21.7292 26.9792 21.5677 27.625 21.5156C27.6875 21.5052 27.75 21.5 27.8125 21.5C27.875 21.5 27.9375 21.5 28 21.5C28.0625 21.5 28.125 21.5052 28.1875 21.5156C28.25 21.5156 28.3177 21.5156 28.3906 21.5156H28.4062C28.5208 21.526 28.6354 21.5417 28.75 21.5625C28.8646 21.5729 28.974 21.5938 29.0781 21.625C29.6406 21.7396 30.1562 21.9479 30.625 22.25C31.1042 22.5521 31.5156 22.9167 31.8594 23.3438C32.2135 23.7708 32.4844 24.2552 32.6719 24.7969C32.8698 25.3281 32.9688 25.8906 32.9688 26.4844C32.9688 26.5052 32.9688 26.526 32.9688 26.5469C32.9688 26.5677 32.9688 26.5833 32.9688 26.5938C32.9688 26.6146 32.9688 26.6354 32.9688 26.6562C32.9688 26.6771 32.9688 26.6979 32.9688 26.7188C32.9688 26.8438 32.9583 26.9792 32.9375 27.125C32.9271 27.2604 32.901 27.4062 32.8594 27.5625C32.8177 27.75 32.7656 27.9375 32.7031 28.125C32.6406 28.3021 32.5677 28.474 32.4844 28.6406C32.2031 29.3073 31.8385 30 31.3906 30.7188C30.9427 31.4271 30.4948 32.0781 30.0469 32.6719C29.599 33.2656 29.1875 33.7708 28.8125 34.1875C28.4479 34.5938 28.1979 34.8333 28.0625 34.9062C28.0521 34.9167 28.0417 34.9219 28.0312 34.9219C28.0208 34.9219 28.0104 34.9219 28 34.9219C27.9896 34.9219 27.9792 34.9219 27.9688 34.9219C27.9583 34.9219 27.9427 34.9167 27.9219 34.9062C27.7865 34.8229 27.526 34.5729 27.1406 34.1562C26.7656 33.7292 26.349 33.2135 25.8906 32.6094C25.4427 32.0052 24.9948 31.3438 24.5469 30.625C24.099 29.9167 23.7396 29.224 23.4688 28.5469C23.3958 28.401 23.3333 28.25 23.2812 28.0938C23.2292 27.9271 23.1823 27.7604 23.1406 27.5938C23.1094 27.4375 23.0833 27.2865 23.0625 27.1406C23.0417 26.9948 23.0312 26.8542 23.0312 26.7188C23.0312 26.6979 23.0312 26.6771 23.0312 26.6562C23.0312 26.6354 23.0312 26.6146 23.0312 26.5938C23.0312 26.5833 23.0312 26.5677 23.0312 26.5469C23.0312 26.526 23.0312 26.5052 23.0312 26.4844ZM28 28.6562C28.0312 28.6562 28.0625 28.6562 28.0938 28.6562C28.1354 28.6562 28.1771 28.651 28.2188 28.6406C28.3229 28.6302 28.4271 28.6146 28.5312 28.5938C28.6354 28.5729 28.7396 28.5417 28.8438 28.5C29.3021 28.3333 29.6771 28.0469 29.9688 27.6406C30.2604 27.224 30.4062 26.7604 30.4062 26.25C30.4062 25.7292 30.2604 25.2656 29.9688 24.8594C29.6771 24.4427 29.3021 24.151 28.8438 23.9844C28.7604 23.9531 28.6719 23.9271 28.5781 23.9062C28.4948 23.8854 28.4115 23.8698 28.3281 23.8594C28.276 23.849 28.2188 23.8438 28.1562 23.8438C28.1042 23.8333 28.0521 23.8281 28 23.8281C27.3333 23.8281 26.7656 24.0677 26.2969 24.5469C25.8281 25.0156 25.5938 25.5833 25.5938 26.25C25.5938 26.9062 25.8281 27.474 26.2969 27.9531C26.7656 28.4219 27.3333 28.6562 28 28.6562Z" fill="#F1AFCE"/>
</g>
<defs>
<clipPath id="clip0_7767_175238">
<rect width="36" height="36" fill="white" transform="translate(0 0.5)"/>
</clipPath>
</defs>
</svg>
