<svg width="36" height="37" viewBox="0 0 36 37" fill="none" xmlns="http://www.w3.org/2000/svg">
<path d="M20.2362 3.69597C20.1273 3.72427 20.0127 3.72146 19.9053 3.68788C19.798 3.6543 19.7022 3.59128 19.6288 3.50597C19.3575 3.24841 19.0268 3.06193 18.6662 2.96312C18.4303 2.88203 18.2319 2.71808 18.1076 2.50168L18.0533 2.40397C18.0533 2.40397 17.7036 1.70097 17.3592 1.48111C17.2944 1.43309 17.2145 1.40997 17.1341 1.41597C16.7409 1.48383 15.6238 2.27097 15.2957 2.5994C14.9676 2.92783 13.2593 3.32412 12.077 3.71769C10.8948 4.11126 9.63664 6.54597 9.38446 6.93954C9.13229 7.33311 8.13714 7.66154 7.48637 8.32111C6.83559 8.98068 4.26773 13.0548 3.69017 13.842C3.1126 14.6291 1.02469 17.8347 0.669476 18.7087C0.420011 19.3248 0.420011 24.0775 0.601687 24.8077C0.742688 25.3695 1.84087 27.0063 2.42657 27.9155C3.20805 28.9457 4.11433 29.8748 5.12458 30.6814C5.28185 30.8063 5.43371 30.9175 5.56928 31.0044C5.6859 31.0788 5.77974 31.184 5.84044 31.3084C6.06838 31.7651 6.27203 32.2335 6.45054 32.7117C6.64306 33.355 7.02539 33.3061 6.54544 34.2941C6.51993 34.3447 6.50604 34.4003 6.50478 34.457C6.50497 34.6096 6.55442 34.7581 6.64577 34.8804C6.84371 35.1518 6.84372 35.274 7.04166 35.407C7.13928 35.4721 7.27214 35.407 7.3779 35.3255C7.4388 35.2766 7.51294 35.2471 7.59076 35.2409C7.66858 35.2346 7.7465 35.2518 7.81445 35.2903C8.00944 35.4074 8.21139 35.5125 8.41915 35.6051C8.61709 35.6702 8.81774 35.4097 8.74724 35.0785C8.66318 34.6714 8.99941 34.1313 8.99941 33.9467C8.99941 33.583 8.84757 33.4038 9.0428 32.4158C9.23804 31.4278 9.31396 30.6407 9.50377 30.3123C9.69358 29.9838 11.5564 28.1001 12.2885 27.0035C12.6871 26.401 14.7886 23.5835 14.8429 23.5293C15.0264 23.2528 15.151 22.9414 15.2089 22.6145C15.2659 22.2454 15.8 20.8638 15.9383 19.105C15.9355 19.0824 15.9355 19.0596 15.9383 19.0371C16.0739 18.554 17.6087 13.633 18.1076 12.93C18.4384 12.474 18.7068 11.9257 19.3983 10.3025C19.7563 9.67105 19.9806 8.97255 20.0572 8.25054C20.1169 7.2734 19.7589 7.77826 19.8918 6.5324C19.9176 6.30136 19.9827 6.07643 20.0843 5.8674C20.1792 5.67468 20.2823 5.45754 20.2985 5.43583C20.4938 5.25397 20.708 4.29583 20.6998 4.07868C20.6987 4.02155 20.6853 3.96534 20.6604 3.91389C20.6356 3.86245 20.5999 3.81699 20.5559 3.78064C20.5118 3.74429 20.4605 3.7179 20.4053 3.70329C20.3501 3.68867 20.2924 3.68618 20.2362 3.69597Z" fill="#BABBE1"/>
<rect x="21.1501" y="8.15039" width="3.6" height="2.25" rx="1.125" fill="#BABBE1"/>
<rect x="18.9" y="15.3496" width="2.25" height="2.25" rx="1.125" fill="#8486B4"/>
<rect x="18.9001" y="19.4004" width="2.25" height="2.25" rx="1.125" fill="#BABBE1"/>
<rect x="18.9" y="27.5" width="2.25" height="2.25" rx="1.125" fill="#BABBE1"/>
<rect x="18.9" y="23.4492" width="2.25" height="2.25" rx="1.125" fill="#8486B4"/>
<rect x="25.2" y="8.15039" width="5.4" height="2.25" rx="1.125" fill="#BABBE1"/>
<rect x="22.5" y="15.3496" width="6.3" height="2.25" rx="1.125" fill="#8486B4"/>
<rect x="22.5002" y="19.4004" width="6.3" height="2.25" rx="1.125" fill="#BABBE1"/>
<rect x="22.5" y="27.5" width="6.3" height="2.25" rx="1.125" fill="#BABBE1"/>
<rect x="22.5" y="23.4492" width="6.3" height="2.25" rx="1.125" fill="#8486B4"/>
<rect x="29.7001" y="15.3496" width="5.85" height="2.25" rx="1.125" fill="#8486B4"/>
<rect x="29.7" y="19.4004" width="5.85" height="2.25" rx="1.125" fill="#BABBE1"/>
<rect x="29.7001" y="27.5" width="5.85" height="2.25" rx="1.125" fill="#BABBE1"/>
<rect x="29.7001" y="23.4492" width="5.85" height="2.25" rx="1.125" fill="#8486B4"/>
</svg>
