<svg width="36" height="37" viewBox="0 0 36 37" fill="none" xmlns="http://www.w3.org/2000/svg">
<path d="M36 18.5C36 28.4411 27.9411 36.5 18 36.5C8.05887 36.5 0 28.4411 0 18.5C0 8.55887 8.05887 0.5 18 0.5C27.9411 0.5 36 8.55887 36 18.5ZM6.3 18.5C6.3 24.9617 11.5383 30.2 18 30.2C24.4617 30.2 29.7 24.9617 29.7 18.5C29.7 12.0383 24.4617 6.8 18 6.8C11.5383 6.8 6.3 12.0383 6.3 18.5Z" fill="#BABBE1"/>
<path d="M18 3.65C18 1.9103 19.4209 0.472017 21.134 0.774925C23.3457 1.16599 25.4741 1.96925 27.405 3.15248C30.2354 4.88696 32.531 7.37038 34.0381 10.3282C35.5452 13.286 36.205 16.6029 35.9445 19.9123C35.7668 22.1698 35.1656 24.3639 34.182 26.3831C33.4201 27.9471 31.4213 28.2512 30.0139 27.2286C28.6065 26.206 28.3424 24.2403 28.9538 22.6116C29.3371 21.5903 29.5775 20.5157 29.6639 19.418C29.8332 17.2669 29.4044 15.1109 28.4248 13.1883C27.4452 11.2657 25.953 9.65153 24.1132 8.52411C23.1744 7.94877 22.1636 7.51164 21.1121 7.22149C19.4351 6.75875 18 5.3897 18 3.65Z" fill="#8486B4"/>
</svg>
