<svg width="36" height="37" viewBox="0 0 36 37" fill="none" xmlns="http://www.w3.org/2000/svg">
<g clip-path="url(#clip0_7767_177963)">
<rect width="36" height="36" transform="translate(0 0.5)" fill="white"/>
<path d="M34.9277 31.71H21.4277V19.6414C21.4277 19.3295 21.3223 19.0613 21.1113 18.8368C20.9004 18.6123 20.6484 18.5 20.3555 18.5C20.0625 18.5 19.8105 18.6123 19.5996 18.8368C19.3887 19.0613 19.2832 19.3295 19.2832 19.6414V31.71H19.0723C18.7793 31.71 18.5273 31.8222 18.3164 32.0468C18.1055 32.2713 18 32.5395 18 32.8514C18 33.1632 18.1055 33.4314 18.3164 33.6559C18.5273 33.8805 18.7793 33.9927 19.0723 33.9927H19.2832V35.3586C19.2832 35.6705 19.3887 35.9387 19.5996 36.1632C19.8105 36.3877 20.0625 36.5 20.3555 36.5C20.6484 36.5 20.9004 36.3877 21.1113 36.1632C21.3223 35.9387 21.4277 35.6705 21.4277 35.3586V33.9927H34.9277C35.2207 33.9927 35.4727 33.8805 35.6836 33.6559C35.8945 33.4314 36 33.1632 36 32.8514C36 32.5395 35.8945 32.2713 35.6836 32.0468C35.4727 31.8222 35.2207 31.71 34.9277 31.71ZM23.1504 30.6809C23.0449 30.6809 22.9453 30.6684 22.8516 30.6435C22.7578 30.606 22.6699 30.5561 22.5879 30.4938C22.3652 30.3316 22.2305 30.1133 22.1836 29.8389C22.1484 29.552 22.207 29.2963 22.3594 29.0717L26.2266 23.3649C26.3203 23.2277 26.4375 23.1216 26.5781 23.0468C26.7305 22.9719 26.8887 22.9407 27.0527 22.9532C27.2168 22.9657 27.3691 23.0218 27.5098 23.1216C27.6504 23.2089 27.7617 23.3274 27.8438 23.4771L29.4258 26.527L33.6973 19.5478C33.8379 19.3108 34.0371 19.1611 34.2949 19.0988C34.5527 19.0364 34.793 19.08 35.0156 19.2297C35.2383 19.3919 35.3789 19.6102 35.4375 19.8846C35.4961 20.159 35.4551 20.4148 35.3145 20.6518L30.1641 29.0717C30.0703 29.2339 29.9473 29.3586 29.7949 29.4459C29.6426 29.5208 29.4844 29.552 29.3203 29.5395C29.1562 29.5395 28.998 29.4958 28.8457 29.4085C28.7051 29.3087 28.5938 29.1778 28.5117 29.0156L26.8945 25.8909L23.9238 30.2692C23.8301 30.4064 23.7129 30.5125 23.5723 30.5873C23.4316 30.6497 23.291 30.6809 23.1504 30.6809Z" fill="#F1AFCE"/>
<rect opacity="0.7" x="0.5625" y="5" width="6.75" height="1.6875" rx="0.84375" fill="#D35092"/>
<rect opacity="0.7" x="10.6875" y="5" width="3.375" height="1.6875" rx="0.84375" fill="#D35092"/>
<rect opacity="0.7" x="1.6875" y="8.9375" width="5.625" height="1.6875" rx="0.84375" fill="#D35092"/>
<rect opacity="0.7" x="10.6875" y="8.9375" width="5.625" height="1.6875" rx="0.84375" fill="#D35092"/>
<rect opacity="0.7" x="0.5625" y="12.875" width="6.75" height="1.6875" rx="0.84375" fill="#D35092"/>
<rect opacity="0.7" x="10.6875" y="12.875" width="4.5" height="1.6875" rx="0.84375" fill="#D35092"/>
<path fill-rule="evenodd" clip-rule="evenodd" d="M9 3.875C8.37868 3.875 7.875 4.37868 7.875 5V16.25H7.56066H1.00919C0.733456 16.25 0.496324 16.3607 0.297794 16.582C0.0992647 16.8033 0 17.0676 0 17.375C0 17.6824 0.0992647 17.9467 0.297794 18.168C0.496324 18.3893 0.733456 18.5 1.00919 18.5H7.56066H9.57904H16.9908C17.2665 18.5 17.5037 18.3893 17.7022 18.168C17.9007 17.9467 18 17.6824 18 17.375C18 17.0676 17.9007 16.8033 17.7022 16.582C17.5037 16.3607 17.2665 16.25 16.9908 16.25H10.125V5C10.125 4.37868 9.62132 3.875 9 3.875Z" fill="#F1AFCE"/>
<rect opacity="0.7" x="4.5" y="1.0625" width="2.25" height="2.25" rx="1.125" fill="#D35092"/>
<path opacity="0.7" d="M11.6134 1.1002C11.6519 1.03353 11.7481 1.03353 11.7866 1.1002L12.9774 3.1627C13.0159 3.22936 12.9678 3.3127 12.8908 3.3127H10.5092C10.4322 3.3127 10.3841 3.22936 10.4226 3.1627L11.6134 1.1002Z" fill="#D35092"/>
</g>
<defs>
<clipPath id="clip0_7767_177963">
<rect width="36" height="36" fill="white" transform="translate(0 0.5)"/>
</clipPath>
</defs>
</svg>
